<?xml version="1.0" encoding="UTF-8" ?>
<!DOCTYPE svg PUBLIC "-//W3C//DTD SVG 1.1//EN" "http://www.w3.org/Graphics/SVG/1.1/DTD/svg11.dtd">
<svg width="889pt" height="889pt" viewBox="0 0 889 889" version="1.1" xmlns="http://www.w3.org/2000/svg">
<g id="#ffffffff">
<path fill="#ffffff" opacity="1.00" d=" M 0.00 0.00 L 889.00 0.00 L 889.00 889.00 L 0.00 889.00 L 0.00 0.00 M 590.00 246.00 L 590.00 246.94 C 587.15 247.02 584.16 247.14 581.38 247.42 C 578.99 248.13 576.54 248.36 574.03 248.11 L 574.00 249.00 L 569.00 249.00 L 568.95 249.89 C 563.59 250.35 558.50 252.17 553.29 253.29 C 551.75 254.95 549.78 255.68 547.36 255.47 C 546.30 255.74 545.23 256.00 544.17 256.23 C 543.83 256.61 543.15 257.36 542.82 257.73 C 541.77 258.01 540.73 258.34 539.72 258.71 C 538.52 258.86 537.32 259.00 536.12 259.12 C 535.81 259.57 535.19 260.45 534.88 260.89 C 533.66 260.98 532.44 261.09 531.23 261.20 C 530.15 262.16 529.00 263.02 527.86 263.90 C 527.15 263.93 525.73 263.99 525.02 264.02 C 525.01 264.51 525.00 265.51 525.00 266.00 C 535.66 266.00 546.33 265.99 557.00 266.00 L 557.00 267.00 C 586.66 267.00 616.33 266.99 646.00 267.00 C 654.20 266.95 662.42 267.23 670.63 266.61 C 671.00 266.49 671.73 266.26 672.10 266.14 C 682.47 265.66 692.89 266.33 703.29 265.77 C 702.18 264.83 700.99 264.00 699.82 263.17 C 699.19 263.03 697.92 262.76 697.29 262.63 C 691.71 260.95 686.10 259.06 680.25 258.74 C 679.42 258.23 678.61 257.73 677.80 257.22 C 671.71 257.24 666.35 253.56 660.24 253.76 C 659.42 253.23 658.61 252.69 657.81 252.15 C 656.18 252.03 652.94 251.80 651.32 251.68 C 649.21 250.58 646.79 249.34 644.38 249.47 C 642.88 249.22 639.88 248.71 638.38 248.46 C 636.06 247.99 633.73 247.65 631.39 247.45 C 627.34 246.47 623.08 247.23 619.00 246.96 L 619.00 246.00 C 609.33 246.00 599.66 246.00 590.00 246.00 M 649.00 288.00 L 649.23 288.66 C 650.33 289.20 651.32 289.94 652.27 290.74 C 653.42 290.91 654.57 291.08 655.74 291.25 C 656.83 292.17 658.01 292.99 659.20 293.80 C 661.75 293.27 663.77 293.93 665.27 295.78 C 666.42 295.94 667.57 296.10 668.73 296.27 C 669.69 296.68 670.67 297.08 671.66 297.45 C 672.70 297.73 673.76 297.99 674.84 298.22 C 675.16 298.61 675.81 299.40 676.13 299.80 C 677.54 299.99 678.97 300.17 680.39 300.48 C 682.75 300.40 685.19 301.59 687.31 302.62 C 688.30 302.93 689.28 303.27 690.27 303.63 C 691.62 303.93 692.99 304.20 694.34 304.59 L 698.62 305.45 C 700.03 305.82 701.49 305.99 702.96 306.17 L 703.03 306.96 C 704.43 307.09 707.22 307.34 708.62 307.46 C 712.60 308.73 716.88 307.63 720.99 308.03 C 729.20 307.94 737.42 308.23 745.63 307.60 C 747.98 306.83 750.42 306.60 752.97 306.89 L 753.00 306.00 C 754.50 306.00 757.50 306.00 759.00 306.00 L 759.06 305.12 C 761.66 305.74 763.73 305.11 765.25 303.24 C 769.70 302.88 774.10 301.98 778.29 300.37 C 778.94 300.24 780.22 299.99 780.87 299.86 C 781.18 299.42 781.81 298.55 782.12 298.11 C 783.33 298.01 784.55 297.90 785.77 297.79 C 788.67 296.42 791.72 295.31 794.27 293.29 C 794.92 293.19 796.22 292.98 796.87 292.88 C 797.18 292.44 797.82 291.56 798.13 291.12 C 798.78 291.03 800.08 290.85 800.73 290.76 C 801.66 289.94 802.64 289.19 803.78 288.66 L 804.00 288.00 C 752.33 288.00 700.67 288.00 649.00 288.00 M 61.00 331.00 C 61.00 337.99 61.00 344.99 61.00 352.00 C 178.00 352.00 295.00 352.00 412.00 352.00 L 412.00 353.00 C 437.41 352.90 462.82 353.21 488.22 352.83 C 486.78 351.22 485.29 349.58 483.34 348.59 C 481.11 346.85 478.89 345.11 476.70 343.36 C 473.85 342.40 471.05 341.20 468.72 339.29 C 467.56 339.10 466.41 338.92 465.25 338.75 C 464.15 337.82 462.99 336.99 461.83 336.17 C 461.19 336.03 459.92 335.77 459.28 335.64 C 455.81 334.34 452.12 333.71 448.73 332.26 C 446.16 332.03 443.59 331.92 441.02 331.93 L 441.00 331.00 C 314.33 331.00 187.67 331.00 61.00 331.00 M 501.30 331.25 C 500.76 331.49 499.67 331.98 499.12 332.22 C 498.99 338.81 498.95 345.40 499.00 352.00 C 543.33 351.99 587.67 352.02 632.01 351.99 C 632.00 351.26 631.96 349.81 631.94 349.09 C 631.47 348.79 630.54 348.20 630.07 347.90 C 630.03 347.20 629.96 345.80 629.93 345.11 C 629.47 344.80 628.56 344.19 628.10 343.88 C 628.02 343.22 627.85 341.90 627.77 341.24 C 625.77 338.04 624.25 334.56 622.86 331.08 C 582.34 331.06 541.81 330.72 501.30 331.25 M 711.00 331.00 C 710.99 338.33 710.99 345.66 711.00 353.00 C 749.33 353.00 787.66 353.00 826.00 353.00 C 825.99 345.66 825.99 338.33 826.00 331.00 C 787.66 331.00 749.33 331.00 711.00 331.00 M 61.00 373.99 C 61.00 374.50 61.00 375.51 61.00 376.01 L 62.00 376.00 C 62.00 382.33 62.00 388.66 62.00 395.00 C 155.67 395.00 249.33 395.00 343.00 395.00 L 343.00 396.00 C 399.33 396.00 455.66 395.99 512.00 396.00 C 520.20 395.95 528.43 396.23 536.63 395.61 C 540.55 394.10 544.91 395.43 548.99 394.97 C 584.02 395.02 619.05 395.02 654.08 394.97 C 653.42 392.89 652.09 388.72 651.43 386.64 C 649.36 383.34 647.32 380.03 645.18 376.80 C 645.12 376.11 645.02 374.72 644.96 374.02 C 450.31 373.96 255.66 374.03 61.00 373.99 M 711.00 374.00 C 710.99 381.33 710.99 388.66 711.00 396.00 C 749.33 396.00 787.66 396.00 826.00 396.00 C 825.99 388.66 825.99 381.33 826.00 374.00 C 787.66 374.00 749.33 374.00 711.00 374.00 M 425.00 415.00 C 424.99 421.99 424.99 428.99 425.00 436.00 C 453.23 435.84 481.48 436.32 509.71 435.75 C 510.24 435.51 511.31 435.02 511.84 434.78 C 512.78 432.45 513.40 429.88 513.57 427.40 C 514.48 423.34 513.76 419.10 514.04 415.00 C 484.35 414.99 454.68 415.00 425.00 415.00 M 542.00 415.00 C 542.00 421.33 541.98 427.65 542.00 434.00 C 546.33 434.00 550.64 433.98 555.00 434.00 L 555.00 435.00 C 595.09 434.91 635.18 435.17 675.26 434.87 C 674.67 433.45 674.00 432.07 673.29 430.72 C 673.15 430.11 672.87 428.89 672.73 428.27 C 670.41 425.77 669.28 422.45 667.32 419.71 C 667.17 419.11 666.86 417.90 666.71 417.29 C 666.49 416.74 666.05 415.63 665.83 415.08 C 624.56 414.88 583.28 415.06 542.00 415.00 M 711.00 414.96 C 710.99 421.64 710.99 428.32 711.00 435.00 C 723.33 435.00 735.66 435.00 748.00 435.00 L 748.00 434.00 C 759.99 433.99 771.99 434.00 784.00 434.00 C 783.99 428.00 783.98 421.99 784.00 416.00 C 763.79 415.77 743.56 416.49 723.37 415.61 C 719.44 414.10 715.03 415.44 711.00 414.96 M 113.00 416.00 C 113.00 422.02 112.99 428.03 112.95 434.07 C 116.96 436.16 121.72 434.45 125.99 435.03 C 151.05 434.94 176.11 435.06 201.17 434.96 C 201.00 433.50 200.84 432.03 200.40 430.63 C 200.29 426.97 200.08 419.66 199.97 416.00 C 170.98 415.99 141.99 416.00 113.00 416.00 M 291.25 416.14 C 290.98 416.66 290.43 417.71 290.15 418.24 C 289.85 424.15 290.03 430.07 290.00 436.00 C 314.00 436.00 338.00 436.00 362.00 436.00 C 362.00 429.33 362.00 422.66 362.00 416.00 C 338.41 416.08 314.83 415.82 291.25 416.14 M 121.37 454.40 C 118.98 455.17 116.51 455.37 113.95 455.02 C 111.41 460.93 113.77 467.77 113.00 474.00 C 142.00 474.00 171.00 474.00 200.01 474.00 C 200.00 468.40 200.00 462.80 199.83 457.22 C 199.14 456.52 198.48 455.82 197.83 455.10 C 185.56 454.88 173.28 455.05 161.00 455.00 L 161.00 454.00 C 147.79 454.17 134.56 453.57 121.37 454.40 M 569.37 454.39 C 569.00 454.51 568.27 454.74 567.90 454.86 C 559.28 455.27 550.62 454.88 542.00 455.00 C 541.99 461.66 541.99 468.33 542.00 475.00 C 566.66 475.00 591.33 475.00 616.00 475.00 C 616.00 472.50 616.00 467.50 616.00 465.00 L 616.77 465.15 C 617.01 465.68 617.49 466.75 617.74 467.28 C 617.86 467.89 618.12 469.12 618.25 469.73 C 619.76 471.11 620.56 473.01 621.21 474.92 C 645.18 475.12 669.14 474.91 693.11 475.03 C 693.53 473.82 693.84 472.58 693.96 471.31 C 692.40 468.44 691.28 465.32 689.32 462.71 C 689.18 462.09 688.90 460.86 688.76 460.24 C 687.12 458.78 685.83 457.02 684.89 455.05 C 677.92 454.96 670.95 455.00 664.00 455.00 L 664.00 454.00 C 632.46 454.25 600.89 453.49 569.37 454.39 M 711.00 455.00 C 710.99 461.66 710.99 468.33 711.00 475.00 C 731.20 474.77 751.43 475.48 771.63 474.61 C 775.55 473.09 779.90 474.44 784.00 473.97 C 783.99 467.96 783.99 461.94 784.05 455.93 C 780.04 453.84 775.24 455.51 771.01 454.97 C 751.00 455.03 731.00 454.98 711.00 455.00 M 293.30 456.25 C 292.76 456.49 291.67 456.98 291.12 457.22 C 291.00 463.81 290.96 470.40 291.00 477.00 C 311.33 477.00 331.66 477.00 352.00 477.00 L 352.00 476.00 C 388.00 476.00 424.00 475.99 460.00 476.00 C 468.22 475.97 476.46 476.17 484.68 475.67 C 485.70 475.31 486.73 474.99 487.79 474.72 C 492.27 470.22 496.95 465.89 500.67 460.69 C 501.37 459.47 502.21 458.34 502.90 457.12 C 501.98 455.86 500.41 455.99 499.04 455.97 C 440.36 456.04 381.68 455.98 323.00 456.00 C 313.10 456.04 303.19 455.81 293.30 456.25 M 113.00 492.00 C 113.00 498.66 113.00 505.33 113.00 512.00 C 141.67 512.00 170.33 512.00 199.00 512.00 C 199.00 505.33 199.00 498.66 199.00 492.00 C 170.33 492.00 141.67 492.00 113.00 492.00 M 542.00 492.00 C 541.99 498.66 541.99 505.33 542.00 512.00 C 566.33 512.00 590.66 512.00 615.00 512.00 C 614.99 505.33 614.99 498.66 615.00 492.00 C 590.66 492.00 566.33 492.00 542.00 492.00 M 630.98 492.01 C 631.00 493.30 631.02 494.61 631.06 495.91 C 631.52 496.21 632.44 496.81 632.90 497.11 C 632.99 498.33 633.09 499.55 633.20 500.78 C 635.34 504.40 637.31 508.11 639.25 511.84 C 687.50 512.20 735.75 511.90 784.00 512.00 C 783.99 505.33 783.99 498.66 784.00 492.00 C 760.00 492.00 736.01 492.00 712.02 492.00 C 711.98 496.09 711.91 500.19 711.79 504.30 C 710.47 503.27 709.89 501.80 709.74 500.18 C 708.88 499.39 708.03 498.59 707.17 497.83 C 707.06 497.19 706.85 495.91 706.75 495.27 C 705.90 494.33 705.12 493.32 704.75 492.11 C 680.16 491.83 655.57 492.08 630.98 492.01 M 291.00 497.00 C 291.00 503.66 291.00 510.33 291.00 517.00 C 310.87 517.23 330.77 516.51 350.63 517.39 C 354.55 518.90 358.92 517.53 362.99 518.03 C 404.66 517.96 446.33 518.02 488.00 518.00 L 488.00 517.02 C 491.83 516.97 499.49 516.85 503.33 516.80 C 501.90 514.17 499.60 512.10 498.72 509.17 C 498.37 509.08 497.67 508.89 497.32 508.79 C 495.84 505.47 492.52 503.45 490.61 500.43 C 489.13 499.60 487.90 498.42 486.80 497.15 C 421.53 496.80 356.27 497.10 291.00 497.00 M 130.37 532.39 C 124.79 534.06 118.72 532.46 113.00 533.00 C 113.00 541.00 113.00 548.99 113.00 557.00 C 142.00 557.00 171.00 557.00 200.00 557.00 C 200.00 550.33 200.00 543.66 200.00 537.00 L 199.00 537.00 C 199.00 535.66 199.00 534.33 199.00 533.00 C 192.00 532.99 185.00 532.99 178.00 533.00 L 178.00 532.00 C 162.13 532.19 146.23 531.55 130.37 532.39 M 542.00 532.00 C 541.99 540.33 541.99 548.66 542.00 557.00 C 566.33 557.00 590.66 557.00 615.00 557.00 C 614.99 548.66 614.99 540.33 615.00 532.00 C 590.66 532.00 566.33 532.00 542.00 532.00 M 649.68 532.19 C 650.22 533.28 650.89 534.31 651.62 535.30 C 652.26 539.37 654.50 542.88 656.80 546.22 C 656.88 546.88 657.03 548.21 657.10 548.87 C 657.55 549.19 658.44 549.82 658.88 550.13 C 658.98 550.78 659.17 552.09 659.27 552.74 C 660.01 554.08 660.68 555.46 661.23 556.91 C 702.48 557.13 743.74 556.93 785.00 557.00 C 784.98 549.30 784.99 541.61 785.04 533.93 C 783.76 533.36 782.43 532.86 781.02 532.97 C 771.01 532.94 761.00 533.03 751.00 533.00 L 751.00 532.00 C 717.22 532.12 683.45 531.75 649.68 532.19 M 425.00 536.00 C 424.99 542.99 424.99 549.99 425.00 557.00 C 454.68 556.99 484.37 557.01 514.05 556.99 C 514.26 549.89 513.83 542.58 511.04 535.98 C 482.36 536.03 453.68 535.98 425.00 536.00 M 290.92 536.96 C 288.52 543.29 290.71 550.39 290.00 557.00 C 314.00 557.00 338.01 557.00 362.01 557.00 C 362.00 551.44 362.03 545.87 361.65 540.34 C 361.31 539.26 361.02 538.17 360.79 537.08 C 337.50 536.87 314.21 537.10 290.92 536.96 M 96.00 578.00 L 96.00 579.00 C 84.67 579.00 73.33 578.99 62.00 579.00 C 62.00 586.33 62.00 593.66 62.00 601.00 C 246.33 601.00 430.67 601.00 615.00 601.00 C 614.99 593.33 614.99 585.66 615.00 578.00 C 442.00 578.00 269.00 578.00 96.00 578.00 M 672.96 578.03 C 673.01 578.73 673.09 580.12 673.14 580.81 C 673.70 581.60 674.26 582.40 674.83 583.21 C 674.93 583.84 675.13 585.11 675.22 585.75 C 678.05 588.32 678.92 592.28 680.34 595.71 C 681.87 597.24 683.13 599.01 684.12 600.95 C 731.41 601.06 778.70 600.96 826.00 601.00 C 825.99 593.33 825.99 585.66 826.00 578.00 C 774.99 578.02 723.97 577.96 672.96 578.03 M 61.00 622.00 C 61.00 628.99 61.00 635.99 61.00 643.00 C 179.00 643.00 297.00 643.00 415.00 643.00 L 415.00 642.00 C 426.21 641.88 437.44 642.36 448.64 641.59 C 450.91 640.89 453.26 640.56 455.68 640.59 C 456.67 640.24 457.67 639.92 458.69 639.62 C 461.56 638.52 464.44 637.44 467.34 636.38 C 469.70 635.11 472.08 633.84 474.33 632.36 C 478.77 629.46 483.25 626.63 487.65 623.67 C 487.79 623.28 488.08 622.49 488.23 622.10 C 345.82 621.87 203.41 622.07 61.00 622.00 M 499.00 622.00 C 498.99 628.99 498.99 635.99 499.00 643.00 C 537.67 643.00 576.33 643.00 615.00 643.00 C 614.99 635.99 614.99 628.99 615.00 622.00 C 576.33 622.00 537.67 622.00 499.00 622.00 M 745.00 622.00 L 745.00 623.00 C 728.27 623.05 711.54 622.88 694.81 623.10 C 696.05 626.66 697.27 630.30 699.71 633.28 C 699.88 634.43 700.06 635.59 700.24 636.76 C 702.26 639.12 704.03 641.67 706.24 643.90 C 746.16 644.14 786.08 643.92 826.00 644.00 C 825.99 636.66 825.99 629.32 826.00 622.00 C 799.00 622.00 772.00 622.00 745.00 622.00 Z" />
</g>
</svg>
