<?xml version="1.0" standalone="no"?>
<!DOCTYPE svg PUBLIC "-//W3C//DTD SVG 20010904//EN"
 "http://www.w3.org/TR/2001/REC-SVG-20010904/DTD/svg10.dtd">
<svg version="1.0" xmlns="http://www.w3.org/2000/svg"
 width="640.000000pt" height="640.000000pt" viewBox="0 0 640.000000 640.000000"
 preserveAspectRatio="xMidYMid meet">

<g transform="translate(0.000000,640.000000) scale(0.100000,-0.100000)"
fill="#000000" stroke="none">
<path d="M0 3200 l0 -3200 3200 0 3200 0 0 3200 0 3200 -3200 0 -3200 0 0
-3200z m4562 1414 c94 -12 234 -45 461 -106 20 -6 37 -14 37 -19 0 -5 -279 -9
-640 -9 -360 0 -640 4 -640 9 0 11 72 42 180 77 190 61 392 77 602 48z m1193
-311 c-211 -110 -487 -150 -715 -103 -102 21 -260 71 -340 108 l-45 20 575 1
575 0 -50 -26z m-2532 -297 c87 -17 206 -70 257 -114 l35 -31 -1535 2 -1535 2
-3 78 -3 77 1355 0 c1137 0 1366 -2 1429 -14z m1292 -56 c19 -38 35 -74 35
-80 0 -7 -153 -9 -477 -8 l-478 3 -3 64 c-2 35 -1 70 2 77 4 12 84 14 446 14
l440 0 35 -70z m1435 -10 l0 -80 -415 0 -415 0 0 80 0 80 415 0 415 0 0 -80z
m-1277 -299 c20 -37 37 -73 37 -80 0 -8 -549 -10 -2132 -9 l-2133 3 -3 78 -3
77 2098 0 2099 0 37 -69z m1277 -11 l0 -80 -415 0 -415 0 0 80 0 80 415 0 415
0 0 -80z m-4512 -292 l4 -67 -294 -3 c-161 -2 -303 -1 -315 1 -21 3 -23 9 -23
65 0 35 3 66 7 69 4 4 144 6 312 5 l305 -3 4 -67z m1170 -5 l3 -73 -261 0
-260 0 0 68 c0 38 3 72 7 76 4 3 119 5 257 4 l251 -3 3 -72z m1089 12 c-4 -36
-9 -70 -12 -75 -4 -6 -129 -10 -316 -10 l-309 0 0 75 0 75 321 0 322 0 -6 -65z
m1128 0 c20 -35 34 -68 32 -72 -3 -5 -219 -7 -481 -5 l-476 2 0 70 0 70 445 0
444 0 36 -65z m820 -5 l0 -65 -262 -3 -263 -2 0 70 0 70 263 -2 262 -3 0 -65z
m-4217 -219 c9 -5 12 -27 10 -72 l-4 -64 -309 0 -310 0 -3 64 c-2 45 1 67 10
72 17 11 589 11 606 0z m3498 2 c15 -5 74 -112 74 -133 0 -7 -90 -10 -263 -10
l-263 0 -19 38 -20 37 -3 -37 -3 -38 -265 0 -264 0 0 68 c0 38 3 72 7 76 8 8
998 7 1019 -1z m704 0 c19 -5 21 -12 18 -72 l-3 -66 -262 -3 -263 -2 0 69 0
70 43 4 c65 6 443 6 467 0z m-2010 -12 c0 -15 -69 -99 -99 -120 -28 -20 -38
-21 -727 -21 l-699 -1 -3 62 c-2 34 -1 68 2 75 4 12 135 14 766 14 418 0 760
-4 760 -9z m-2185 -328 l0 -73 -312 0 -313 0 0 68 c0 38 3 72 7 75 4 4 144 6
312 5 l306 -3 0 -72z m2995 2 l0 -75 -265 0 -265 0 0 75 0 75 265 0 265 0 0
-75z m664 33 l26 -43 0 43 0 42 263 -2 262 -3 0 -70 0 -70 -520 -3 -521 -2
-32 65 c-18 36 -32 70 -32 75 0 6 98 10 264 10 l265 0 25 -42z m-1548 -40 c43
-45 74 -87 74 -100 0 -4 -343 -7 -762 -5 l-763 2 -3 73 -3 72 708 0 709 0 40
-42z m-2108 -300 l3 -88 -316 0 -315 0 0 83 c0 46 3 87 7 90 4 4 144 6 312 5
l306 -3 3 -87z m2992 2 l0 -90 -265 0 -265 0 0 90 0 90 265 0 265 0 0 -90z
m1218 -2 l3 -88 -445 0 -444 0 -41 86 c-23 47 -41 87 -41 90 0 2 217 3 483 2
l482 -3 3 -87z m-3040 -15 l3 -73 -261 0 -260 0 0 68 c0 38 3 72 7 76 4 3 119
5 257 4 l251 -3 3 -72z m1081 40 c6 -21 11 -55 11 -75 l0 -38 -320 0 -320 0 0
75 0 75 310 0 309 0 10 -37z m739 -345 l-3 -83 -1990 0 -1990 0 -3 69 c-2 38
-1 75 2 83 5 11 335 13 1996 13 l1991 0 -3 -82z m1520 0 l-3 -83 -505 -2
c-278 -2 -510 1 -516 5 -16 10 -84 148 -77 156 4 3 253 6 555 6 l549 0 -3 -82z
m-2468 -268 c-19 -16 -63 -42 -96 -59 -127 -63 -55 -61 -1564 -61 l-1375 -1
-3 76 -3 75 1538 0 1538 -1 -35 -29z m948 -45 l-3 -75 -415 -1 -415 0 -3 75
-3 76 421 0 421 0 -3 -75z m1522 -4 l0 -80 -412 -1 c-227 0 -427 2 -443 6 -26
5 -35 16 -60 71 -17 36 -31 70 -33 74 -2 5 210 9 472 9 l476 0 0 -79z"/>
</g>
</svg>
